# xmcd
#
# Track frame offsets:
#	150
#	16568
#	47399
#	72510
#	95897
#	118928
#	150925
#	177831
#	199616
#	212287
#	240660
#	253883
#
# Disc length: 3793 seconds
#
# Revision: 1
# Processed by: cddbd v1.5PL3 Copyright (c) Steve Scherf et al.
# Submitted via: audiograbber 1.83.01
#
DISCID=980ecf0c
DTITLE=AJ and the Two Tone Blues Band - Blues House
DYEAR=2003
DGENRE=Blues
TTITLE0=Down the Road
TTITLE1=BB King Medley
TTITLE2=Honest I Do
TTITLE3=Mean Old World
TTITLE4=Blues with a Feeling
TTITLE5=Bad Avenue
TTITLE6=Blues is My Jones
TTITLE7=I'm Ready
TTITLE8=My Babe
TTITLE9=Blues House
TTITLE10=Don't Start Me Talking
TTITLE11=1510 Fairfield Blues
EXTD=AJ and the Two Tone Blues Band Originals: \n  Down the Road\n  Blues is My
EXTD=Jones\n  Blues House\n  1510 Fairfield Blues (Jam)  
EXTT0=Rod Tompkins, AJ Cascio
EXTT1=J. Taub and Riley B. King, J. L. Hooker, Mel London, Careers Music Pub. Inc
EXTT1=, BMI\n(Songs: Sweet Little Angel, It's My Own Fault, How Blue Can You Ge
EXTT1=t]\n
EXTT2=Jimmy Reed, Ewart Abner, ARC Music, BMI
EXTT3=Walter Jacobs, ARC Music, BMI
EXTT4=Walter Jacobs, ARC Music, BMI
EXTT5=Morris Holt, BMI
EXTT6=Tony Cascio
EXTT7=Willie Dixson, BMI
EXTT8=Willie Dixson, BMI
EXTT9=A. J. Cascio
EXTT10=Sonny Boy Williams, ARC Music, BMI
EXTT11=Instrumental, Two Tone Blues Band
PLAYORDER=
